<svg width="72" height="76" viewBox="0 0 72 76" fill="none" xmlns="http://www.w3.org/2000/svg">
<g filter="url(#filter0_d_13_395)">
<path d="M54 13.6719H18V64.6719C18 66.3294 19.3425 67.6719 21 67.6719H51C52.6575 67.6719 54 66.3294 54 64.6719V13.6719Z" fill="#EDEDED"/>
<path d="M54 13.6719H18V9.17188C18 7.51437 19.3425 6.17188 21 6.17188H51C52.6575 6.17188 54 7.51437 54 9.17188V13.6719Z" fill="#CACACA"/>
<path d="M30 11.0469C30.6213 11.0469 31.125 10.5432 31.125 9.92188C31.125 9.30055 30.6213 8.79688 30 8.79688C29.3787 8.79688 28.875 9.30055 28.875 9.92188C28.875 10.5432 29.3787 11.0469 30 11.0469Z" fill="#929292"/>
<path d="M41.25 8.79688C40.959 8.79688 34.041 8.79688 33.75 8.79688C33.129 8.79688 32.625 9.30088 32.625 9.92188C32.625 10.5429 33.129 11.0469 33.75 11.0469C34.041 11.0469 40.959 11.0469 41.25 11.0469C41.871 11.0469 42.375 10.5429 42.375 9.92188C42.375 9.30088 41.871 8.79688 41.25 8.79688Z" fill="#929292"/>
<path d="M45.333 51.1719H26.667C26.025 51.1719 25.5 50.6469 25.5 50.0049V31.3389C25.5 30.6969 26.025 30.1719 26.667 30.1719H45.333C45.975 30.1719 46.5 30.6969 46.5 31.3389V50.0049C46.5 50.6469 45.975 51.1719 45.333 51.1719Z" fill="#FDB52A"/>
<path opacity="0.8" d="M31 33.1719C31 32.6196 31.4477 32.1719 32 32.1719H40C40.5523 32.1719 41 32.6196 41 33.1719C41 33.7242 40.5523 34.1719 40 34.1719H32C31.4477 34.1719 31 33.7242 31 33.1719Z" fill="white"/>
</g>
<defs>
<filter id="filter0_d_13_395" x="-4" y="0.171875" width="80" height="80" filterUnits="userSpaceOnUse" color-interpolation-filters="sRGB">
<feFlood flood-opacity="0" result="BackgroundImageFix"/>
<feColorMatrix in="SourceAlpha" type="matrix" values="0 0 0 0 0 0 0 0 0 0 0 0 0 0 0 0 0 0 127 0" result="hardAlpha"/>
<feOffset dy="4"/>
<feGaussianBlur stdDeviation="2"/>
<feComposite in2="hardAlpha" operator="out"/>
<feColorMatrix type="matrix" values="0 0 0 0 0 0 0 0 0 0 0 0 0 0 0 0 0 0 0.25 0"/>
<feBlend mode="normal" in2="BackgroundImageFix" result="effect1_dropShadow_13_395"/>
<feBlend mode="normal" in="SourceGraphic" in2="effect1_dropShadow_13_395" result="shape"/>
</filter>
</defs>
</svg>
