<svg width="72" height="73" viewBox="0 0 72 73" fill="none" xmlns="http://www.w3.org/2000/svg">
<path d="M43.9474 66.1719H21.0526C19.3737 66.1719 18 64.0119 18 61.3719V54.1719H47V61.3719C47 64.0119 45.6263 66.1719 43.9474 66.1719Z" fill="#FF5634"/>
<path d="M18 52.6719H46.5V58.6719H18V52.6719Z" fill="black" fill-opacity="0.1"/>
<path d="M52.5 22.6719H13.5V49.6719C13.5 52.9719 16.2 55.6719 19.5 55.6719H46.5C49.8 55.6719 52.5 52.9719 52.5 49.6719V22.6719Z" fill="#EDEDED"/>
<path d="M46.5 6.17188H19.5C16.2 6.17188 13.5 8.87188 13.5 12.1719V24.1719H52.5V12.1719C52.5 8.87188 49.8 6.17188 46.5 6.17188Z" fill="#929292"/>
<path d="M46.5 19.6719H19.5C18.6 19.6719 18 19.0719 18 18.1719V12.1719C18 11.2719 18.6 10.6719 19.5 10.6719H46.5C47.4 10.6719 48 11.2719 48 12.1719V18.1719C48 19.0719 47.4 19.6719 46.5 19.6719Z" fill="#656565"/>
<path d="M42 15.1719C42 14.3435 42.6716 13.6719 43.5 13.6719C44.3284 13.6719 45 14.3435 45 15.1719C45 16.0003 44.3284 16.6719 43.5 16.6719C42.6716 16.6719 42 16.0003 42 15.1719ZM36 15.1719C36 14.3435 36.6716 13.6719 37.5 13.6719C38.3284 13.6719 39 14.3435 39 15.1719C39 16.0003 38.3284 16.6719 37.5 16.6719C36.6716 16.6719 36 16.0003 36 15.1719Z" fill="#CACACA"/>
<path d="M48 33.1719H45C44.1 33.1719 43.5 32.5719 43.5 31.6719V28.6719C43.5 27.7719 44.1 27.1719 45 27.1719H48C48.9 27.1719 49.5 27.7719 49.5 28.6719V31.6719C49.5 32.5719 48.9 33.1719 48 33.1719Z" fill="#FF5634"/>
<path d="M21 33.1719H18C17.1 33.1719 16.5 32.5719 16.5 31.6719V28.6719C16.5 27.7719 17.1 27.1719 18 27.1719H21C21.9 27.1719 22.5 27.7719 22.5 28.6719V31.6719C22.5 32.5719 21.9 33.1719 21 33.1719ZM30 33.1719H27C26.1 33.1719 25.5 32.5719 25.5 31.6719V28.6719C25.5 27.7719 26.1 27.1719 27 27.1719H30C30.9 27.1719 31.5 27.7719 31.5 28.6719V31.6719C31.5 32.5719 30.9 33.1719 30 33.1719ZM21 42.1719H18C17.1 42.1719 16.5 41.5719 16.5 40.6719V37.6719C16.5 36.7719 17.1 36.1719 18 36.1719H21C21.9 36.1719 22.5 36.7719 22.5 37.6719V40.6719C22.5 41.5719 21.9 42.1719 21 42.1719ZM30 42.1719H27C26.1 42.1719 25.5 41.5719 25.5 40.6719V37.6719C25.5 36.7719 26.1 36.1719 27 36.1719H30C30.9 36.1719 31.5 36.7719 31.5 37.6719V40.6719C31.5 41.5719 30.9 42.1719 30 42.1719ZM21 51.1719H18C17.1 51.1719 16.5 50.5719 16.5 49.6719V46.6719C16.5 45.7719 17.1 45.1719 18 45.1719H21C21.9 45.1719 22.5 45.7719 22.5 46.6719V49.6719C22.5 50.5719 21.9 51.1719 21 51.1719ZM30 51.1719H27C26.1 51.1719 25.5 50.5719 25.5 49.6719V46.6719C25.5 45.7719 26.1 45.1719 27 45.1719H30C30.9 45.1719 31.5 45.7719 31.5 46.6719V49.6719C31.5 50.5719 30.9 51.1719 30 51.1719ZM39 33.1719H36C35.1 33.1719 34.5 32.5719 34.5 31.6719V28.6719C34.5 27.7719 35.1 27.1719 36 27.1719H39C39.9 27.1719 40.5 27.7719 40.5 28.6719V31.6719C40.5 32.5719 39.9 33.1719 39 33.1719ZM39 42.1719H36C35.1 42.1719 34.5 41.5719 34.5 40.6719V37.6719C34.5 36.7719 35.1 36.1719 36 36.1719H39C39.9 36.1719 40.5 36.7719 40.5 37.6719V40.6719C40.5 41.5719 39.9 42.1719 39 42.1719ZM39 51.1719H36C35.1 51.1719 34.5 50.5719 34.5 49.6719V46.6719C34.5 45.7719 35.1 45.1719 36 45.1719H39C39.9 45.1719 40.5 45.7719 40.5 46.6719V49.6719C40.5 50.5719 39.9 51.1719 39 51.1719Z" fill="#CACACA"/>
<path d="M48 42.1719H45C44.1 42.1719 43.5 41.5719 43.5 40.6719V37.6719C43.5 36.7719 44.1 36.1719 45 36.1719H48C48.9 36.1719 49.5 36.7719 49.5 37.6719V40.6719C49.5 41.5719 48.9 42.1719 48 42.1719Z" fill="#4CAF50"/>
<path d="M48 51.1719H45C44.1 51.1719 43.5 50.5719 43.5 49.6719V46.6719C43.5 45.7719 44.1 45.1719 45 45.1719H48C48.9 45.1719 49.5 45.7719 49.5 46.6719V49.6719C49.5 50.5719 48.9 51.1719 48 51.1719Z" fill="#FDB52A"/>
<path d="M55.5 48.1719H52.5V13.6719H55.5C57.15 13.6719 58.5 15.0219 58.5 16.6719V45.1719C58.5 46.8219 57.15 48.1719 55.5 48.1719Z" fill="#929292"/>
<path d="M36 55.6719H40.5V66.1719H36V55.6719Z" fill="#3F3F3F"/>
</svg>
