<svg width="106" height="91" viewBox="0 0 106 91" fill="none" xmlns="http://www.w3.org/2000/svg">
<g clip-path="url(#clip0_13_304)">
<path d="M29.1752 19.7872C26.0483 19.7872 23.5214 18.7764 21.4929 17.9618C18.2552 16.6649 16.8476 16.2195 14.4637 18.1257C13.4645 18.9241 12.0176 18.758 11.2191 17.7657C10.4229 16.771 10.5868 15.3172 11.5791 14.5234C16.1622 10.8564 19.9052 12.3564 23.2076 13.6787C25.0422 14.4126 26.9368 15.1718 29.1752 15.1718C30.4514 15.1718 31.4829 16.2057 31.4829 17.4795C31.4829 18.7534 30.4514 19.7872 29.1752 19.7872Z" fill="#E13F1F"/>
<path d="M33.7907 23.2484H24.5599V16.3253C24.5599 15.0514 25.5938 14.0176 26.8676 14.0176H31.483C32.7568 14.0176 33.7907 15.0514 33.7907 16.3253V23.2484Z" fill="#FF5634"/>
<path d="M38.4061 30.1722H19.9446V23.2491C19.9446 21.9753 20.9784 20.9414 22.2522 20.9414H36.0984C37.3723 20.9414 38.4061 21.9753 38.4061 23.2491V30.1722Z" fill="#E13F1F"/>
<path d="M45.3292 41.7104H13.0215V32.4797C13.0215 29.9297 15.0868 27.8643 17.6368 27.8643H40.7138C43.2638 27.8643 45.3292 29.9297 45.3292 32.4797V41.7104Z" fill="#FF5634"/>
<path d="M68.8215 31.326C68.5676 30.6798 68.2907 30.0337 67.9907 29.4106L67.2292 27.8644L66.6753 26.7337L64.9676 23.249H44.1523L42.4446 26.7337L41.8907 27.8644L41.1292 29.4106C40.8292 30.0337 40.5523 30.6798 40.2984 31.326C39.0523 34.4644 38.4061 37.8567 38.4061 41.249V42.8644H70.7138V41.249C70.7138 37.8567 70.0676 34.4644 68.8215 31.326Z" fill="#F9F9F9"/>
<path d="M67.2292 27.8642H41.8907L42.4446 26.7334L44.1523 23.2488L48.0984 15.1719H61.0215L64.9676 23.2488L66.6753 26.7334L67.2292 27.8642Z" fill="#CACACA"/>
<path d="M48.7907 16.3254H60.3292C62.24 16.3254 63.7907 14.7747 63.7907 12.8639C63.7907 10.9531 62.24 9.40234 60.3292 9.40234H48.7907C46.88 9.40234 45.3292 10.9531 45.3292 12.8639C45.3292 14.7747 46.88 16.3254 48.7907 16.3254Z" fill="#656565"/>
<path d="M91.4831 41.7104H70.7138V10.5565C70.7138 4.82187 75.3638 0.171875 81.0985 0.171875C86.8331 0.171875 91.4831 4.82187 91.4831 10.5565V41.7104Z" fill="#FFCF7B"/>
<path d="M83.1684 17.2418C80.9691 19.441 78.1353 20.4633 76.4668 20.8995C75.726 21.1002 75.1607 20.5325 75.3614 19.7941C75.396 19.6764 75.4307 19.5449 75.4653 19.4133C75.9499 17.7264 76.9791 15.1325 79.0191 13.0925C81.0591 11.0525 83.6391 10.0233 85.333 9.5456C85.4714 9.50406 85.603 9.46945 85.7207 9.43483C86.4614 9.23406 87.0268 9.80176 86.826 10.5402C86.3922 12.2087 85.3676 15.0425 83.1684 17.2418Z" fill="#E38101"/>
<path d="M83.1684 33.3961C80.9691 35.5953 78.1353 36.6176 76.4668 37.0538C75.726 37.2545 75.1607 36.6868 75.3614 35.9484C75.396 35.8307 75.4307 35.6991 75.4653 35.5676C75.9499 33.8807 76.9791 31.2868 79.0191 29.2468C81.0591 27.2068 83.6391 26.1776 85.333 25.6999C85.4714 25.6584 85.603 25.6238 85.7207 25.5892C86.4614 25.3884 87.0268 25.9561 86.826 26.6945C86.3922 28.363 85.3676 31.1968 83.1684 33.3961Z" fill="#E38101"/>
<path d="M97.5061 42.3101L96.56 48.6331L96.4215 49.5562L90.9984 85.8562C90.6061 88.3485 88.483 90.1716 85.9677 90.1716H18.5369C16.0215 90.1716 13.8984 88.3485 13.5061 85.8562L8.1292 49.5562L7.99073 48.6331L7.04458 42.3101C6.81381 40.7639 7.99073 39.4024 9.55996 39.4024H94.9907C96.56 39.4024 97.7369 40.7639 97.5061 42.3101Z" fill="#4CAF50"/>
<path d="M97.5061 42.3101L96.56 48.6331H7.99073L7.04458 42.3101C6.81381 40.7639 7.99073 39.4024 9.55996 39.4024H94.9907C96.56 39.4024 97.7369 40.7639 97.5061 42.3101Z" fill="#53D158"/>
<path d="M44.1754 85.5567C42.2646 85.5567 40.7138 84.006 40.7138 82.0952V56.7106C40.7138 54.7998 42.2646 53.249 44.1754 53.249C46.0862 53.249 47.6369 54.7998 47.6369 56.7106V82.0952C47.6369 84.006 46.0862 85.5567 44.1754 85.5567Z" fill="black" fill-opacity="0.18"/>
<path d="M28.0215 85.5567C26.1107 85.5567 24.5599 84.006 24.5599 82.0952V56.7106C24.5599 54.7998 26.1107 53.249 28.0215 53.249C29.9322 53.249 31.483 54.7998 31.483 56.7106V82.0952C31.483 84.006 29.9322 85.5567 28.0215 85.5567Z" fill="black" fill-opacity="0.18"/>
<path d="M60.3292 85.5567C58.4184 85.5567 56.8677 84.006 56.8677 82.0952V56.7106C56.8677 54.7998 58.4184 53.249 60.3292 53.249C62.24 53.249 63.7907 54.7998 63.7907 56.7106V82.0952C63.7907 84.006 62.24 85.5567 60.3292 85.5567Z" fill="black" fill-opacity="0.18"/>
<path d="M76.483 85.5567C74.5722 85.5567 73.0215 84.006 73.0215 82.0952V56.7106C73.0215 54.7998 74.5722 53.249 76.483 53.249C78.3938 53.249 79.9445 54.7998 79.9445 56.7106V82.0952C79.9445 84.006 78.3938 85.5567 76.483 85.5567Z" fill="black" fill-opacity="0.18"/>
</g>
<defs>
<clipPath id="clip0_13_304">
<rect width="105" height="90" fill="white" transform="translate(0.015625 0.171875)"/>
</clipPath>
</defs>
</svg>
