<svg width="63" height="56" viewBox="0 0 63 56" fill="none" xmlns="http://www.w3.org/2000/svg">
<g clip-path="url(#clip0_13_203)">
<path d="M2.35217 12.5752H61.4341V44H2.35217V12.5752Z" fill="#A5D6A7"/>
<path d="M0 42.6552C0 44.312 1.34315 45.6552 3 45.6552H60.0094C61.6663 45.6552 63.0094 44.312 63.0094 42.6552V13C63.0094 11.8954 62.114 11 61.0094 11H2C0.895433 11 0 11.8954 0 13V42.6552ZM59.8589 14.1505V42.5047H3.15047V14.1505H59.8589Z" fill="#388E3C"/>
<path d="M13.0266 25.6019C12.1911 25.6019 11.3898 25.9338 10.7989 26.5246C10.2081 27.1155 9.87617 27.9168 9.87617 28.7523C9.87617 29.5879 10.2081 30.3892 10.7989 30.9801C11.3898 31.5709 12.1911 31.9028 13.0266 31.9028C13.8622 31.9028 14.6635 31.5709 15.2544 30.9801C15.8452 30.3892 16.1771 29.5879 16.1771 28.7523C16.1771 27.9168 15.8452 27.1155 15.2544 26.5246C14.6635 25.9338 13.8622 25.6019 13.0266 25.6019ZM50.8323 25.6019C49.9967 25.6019 49.1954 25.9338 48.6046 26.5246C48.0137 27.1155 47.6818 27.9168 47.6818 28.7523C47.6818 29.5879 48.0137 30.3892 48.6046 30.9801C49.1954 31.5709 49.9967 31.9028 50.8323 31.9028C51.6679 31.9028 52.4692 31.5709 53.06 30.9801C53.6508 30.3892 53.9828 29.5879 53.9828 28.7523C53.9828 27.9168 53.6508 27.1155 53.06 26.5246C52.4692 25.9338 51.6679 25.6019 50.8323 25.6019ZM31.9295 17.7257C29.005 17.7257 26.2004 18.8874 24.1325 20.9553C22.0646 23.0232 20.9028 25.8279 20.9028 28.7523C20.9028 31.6768 22.0646 34.4815 24.1325 36.5494C26.2004 38.6173 29.005 39.779 31.9295 39.779C34.8539 39.779 37.6586 38.6173 39.7265 36.5494C41.7944 34.4815 42.9561 31.6768 42.9561 28.7523C42.9561 25.8279 41.7944 23.0232 39.7265 20.9553C37.6586 18.8874 34.8539 17.7257 31.9295 17.7257ZM55.2099 13C54.4553 13.838 53.9828 14.9344 53.9828 16.1505C53.9828 18.7606 56.0983 20.8762 58.7085 20.8762C59.9246 20.8762 61.0209 20.4036 61.8589 19.6491V13H55.2099ZM8.64906 13H2V19.6491C2.83802 20.4036 3.93438 20.8762 5.15047 20.8762C7.76063 20.8762 9.87617 18.7606 9.87617 16.1505C9.87617 14.9344 9.4036 13.838 8.64906 13ZM8.64906 44.5047C9.4036 43.6667 9.87617 42.5703 9.87617 41.3542C9.87617 38.7441 7.76063 36.6285 5.15047 36.6285C3.93438 36.6285 2.83802 37.1011 2 37.8556V44.5047H8.64906ZM61.8589 44.5047V37.8556C61.0209 37.1011 59.9246 36.6285 58.7085 36.6285C56.0983 36.6285 53.9828 38.7441 53.9828 41.3542C53.9828 42.5703 54.4553 43.6667 55.2099 44.5047H61.8589Z" fill="#388E3C"/>
</g>
<defs>
<clipPath id="clip0_13_203">
<rect width="63" height="56" fill="white"/>
</clipPath>
</defs>
</svg>
