<svg width="239" height="45" viewBox="0 0 239 45" fill="none" xmlns="http://www.w3.org/2000/svg">
<path d="M21.3565 3.64454L5.53014 33.4155C5.31033 33.826 5.17424 34.2762 5.12978 34.7397C5.08531 35.2033 5.13335 35.6711 5.27111 36.1159C5.40887 36.5608 5.63361 36.9738 5.93228 37.3311C6.23095 37.6884 6.59761 37.9829 7.01098 38.1974C12.2738 40.8499 18.0853 42.2317 23.9789 42.2317C29.8724 42.2317 35.6839 40.8499 40.9467 38.1974C41.3707 37.9939 41.7495 37.7074 42.0608 37.3549C42.3721 37.0025 42.6096 36.5912 42.7591 36.1454C42.9087 35.6995 42.9673 35.2282 42.9316 34.7593C42.8958 34.2904 42.7664 33.8335 42.551 33.4155L26.7246 3.64454C26.4555 3.16976 26.0653 2.77484 25.5938 2.50009C25.1222 2.22533 24.5863 2.08057 24.0406 2.08057C23.4948 2.08057 22.9589 2.22533 22.4873 2.50009C22.0158 2.77484 21.6256 3.16976 21.3565 3.64454Z" stroke="#929292" stroke-width="3.89088" stroke-linecap="round" stroke-linejoin="round"/>
<path d="M40.2063 29.2202C35.1681 31.6657 29.6408 32.9362 24.0405 32.9362C18.4402 32.9362 12.9129 31.6657 7.87476 29.2202" stroke="#929292" stroke-width="3.89088" stroke-linecap="round" stroke-linejoin="round"/>
<path d="M19.413 23.6978V25.2403" stroke="#929292" stroke-width="3.89088" stroke-linecap="round" stroke-linejoin="round"/>
<path d="M28.6682 23.6978V25.2403" stroke="#929292" stroke-width="3.89088" stroke-linecap="round" stroke-linejoin="round"/>
<path d="M24.0405 14.4424V15.985" stroke="#929292" stroke-width="3.89088" stroke-linecap="round" stroke-linejoin="round"/>
<path d="M79.8255 31.922L74.1695 23.8897C77.3154 22.7853 79.3904 20.1079 79.3904 16.6942C79.3904 12.1426 75.709 8.92969 70.7223 8.92969H60.3808V31.922H65.3005V24.4587H68.9485L74.2029 31.922H79.8255ZM65.3005 13.4478H70.1868C72.6299 13.4478 74.3033 14.7196 74.3033 16.6942C74.3033 18.6688 72.6299 19.9406 70.1868 19.9406H65.3005V13.4478ZM91.0952 28.0063C89.0537 28.0063 87.5476 26.7345 86.9787 24.8603H99.4621C99.4621 18.3341 96.2827 14.2176 90.8609 14.2176C85.8073 14.2176 81.9585 17.9994 81.9585 23.2204C81.9585 28.5417 85.9746 32.3236 91.1287 32.3236C93.6722 32.3236 96.6508 31.2526 98.1903 29.6462L95.0778 26.4667C94.1408 27.3704 92.4674 28.0063 91.0952 28.0063ZM91.0617 18.5349C93.0363 18.5349 94.3081 19.6393 94.7766 21.3462H87.0456C87.6815 19.6059 89.221 18.5349 91.0617 18.5349ZM109.261 32.3236C113.511 32.3236 116.289 30.1482 116.289 26.7345C116.289 22.9526 112.975 21.9486 109.997 21.1789C107.654 20.543 106.951 20.2752 106.951 19.3381C106.951 18.7357 107.788 18.3006 108.993 18.3006C110.465 18.3006 112.273 18.8696 113.846 19.8402L115.82 16.3595C113.913 15.0877 111.469 14.2176 108.993 14.2176C104.91 14.2176 102.199 16.5603 102.232 19.8402C102.266 23.2539 105.01 24.2244 108.558 25.0946C110.332 25.5631 111.603 25.8978 111.603 26.9688C111.603 27.7385 110.666 28.274 109.361 28.274C107.052 28.274 105.111 27.4373 103.571 26.3329L101.463 29.7131C103.538 31.3865 106.483 32.3236 109.261 32.3236ZM128.67 27.6381C128.336 27.9728 127.666 28.2071 126.997 28.2071C126.093 28.2071 125.357 27.4038 125.357 26.2659V18.5684H129.105V14.6192H125.357V9.86678H120.671V14.6192H118.295V18.5684H120.671V27.0357C120.671 30.1482 122.813 32.3236 125.859 32.3236C127.265 32.3236 128.838 31.7212 129.842 30.8175L128.67 27.6381ZM140.633 14.2176C138.223 14.2176 135.847 14.8869 133.404 16.1252L135.044 19.3716C136.416 18.6688 137.922 18.1333 139.528 18.1333C142.373 18.1333 143.511 19.7397 143.511 21.5805V21.9151C142.038 21.3462 140.499 21.045 139.093 21.045C135.077 21.045 131.898 23.3877 131.898 26.8014C131.898 30.1147 134.743 32.3236 138.424 32.3236C140.298 32.3236 142.273 31.5873 143.511 30.1817V31.922H148.23V21.5805C148.23 17.0623 145.151 14.2176 140.633 14.2176ZM139.528 28.9434C137.855 28.9434 136.617 28.0732 136.617 26.6676C136.617 25.2619 138.022 24.2244 139.796 24.2244C141.135 24.2244 142.407 24.4587 143.511 24.8603V26.4667C143.176 28.0732 141.403 28.9434 139.528 28.9434ZM163.828 14.6192V24.9607L163.794 24.8603C163.794 26.7345 162.221 28.2071 160.18 28.2071C158.239 28.2071 156.9 26.7345 156.9 24.5926V14.6192H152.181V25.6301C152.181 29.5458 154.858 32.3236 158.607 32.3236C160.849 32.3236 162.79 31.3196 163.828 29.7466V31.922H168.714V14.6192H163.828ZM177.792 17.8321V14.6192H172.906V31.922H177.792V23.6555C177.792 20.4091 180.102 18.3341 183.716 18.3341V14.2176C181.072 14.2176 178.93 15.5898 177.792 17.8321ZM194.266 14.2176C191.856 14.2176 189.48 14.8869 187.037 16.1252L188.677 19.3716C190.049 18.6688 191.555 18.1333 193.162 18.1333C196.006 18.1333 197.144 19.7397 197.144 21.5805V21.9151C195.672 21.3462 194.132 21.045 192.727 21.045C188.71 21.045 185.531 23.3877 185.531 26.8014C185.531 30.1147 188.376 32.3236 192.057 32.3236C193.931 32.3236 195.906 31.5873 197.144 30.1817V31.922H201.863V21.5805C201.863 17.0623 198.784 14.2176 194.266 14.2176ZM193.162 28.9434C191.488 28.9434 190.25 28.0732 190.25 26.6676C190.25 25.2619 191.656 24.2244 193.429 24.2244C194.768 24.2244 196.04 24.4587 197.144 24.8603V26.4667C196.81 28.0732 195.036 28.9434 193.162 28.9434ZM215.988 14.2176C213.746 14.2176 211.805 15.2216 210.767 16.7946V14.6192H205.881V31.922H210.767V21.5805L210.801 21.6809C210.801 19.8067 212.374 18.3341 214.415 18.3341C216.357 18.3341 217.695 19.8067 217.695 21.9486V31.922H222.414V20.9111C222.414 16.9954 219.737 14.2176 215.988 14.2176ZM235.643 27.6381C235.308 27.9728 234.638 28.2071 233.969 28.2071C233.065 28.2071 232.329 27.4038 232.329 26.2659V18.5684H236.078V14.6192H232.329V9.86678H227.644V14.6192H225.268V18.5684H227.644V27.0357C227.644 30.1482 229.786 32.3236 232.831 32.3236C234.237 32.3236 235.81 31.7212 236.814 30.8175L235.643 27.6381Z" fill="#929292"/>
</svg>
