<svg width="239" height="42" viewBox="0 0 239 42" fill="none" xmlns="http://www.w3.org/2000/svg">
<path d="M35.2125 19.392C39.0546 19.392 42.1693 15.4986 42.1693 10.696C42.1693 5.89332 39.0546 2 35.2125 2C31.3703 2 28.2557 5.89332 28.2557 10.696C28.2557 15.4986 31.3703 19.392 35.2125 19.392Z" stroke="#929292" stroke-width="3.71" stroke-linecap="round" stroke-linejoin="round"/>
<path d="M35.2125 19.3916V39.6823" stroke="#929292" stroke-width="3.71" stroke-linecap="round" stroke-linejoin="round"/>
<path d="M14.632 2V39.6826" stroke="#929292" stroke-width="3.71" stroke-linecap="round" stroke-linejoin="round"/>
<path d="M21.8786 2V9.24665C21.8786 10.1983 21.6912 11.1406 21.327 12.0198C20.9628 12.899 20.429 13.6979 19.7561 14.3708C19.0832 15.0437 18.2843 15.5775 17.4051 15.9417C16.5259 16.3059 15.5836 16.4933 14.632 16.4933C12.71 16.4933 10.8668 15.7298 9.50781 14.3708C8.1488 13.0118 7.38531 11.1686 7.38531 9.24665V2" stroke="#929292" stroke-width="3.71" stroke-linecap="round" stroke-linejoin="round"/>
<path d="M79.8974 30.922L74.2414 22.8897C77.3873 21.7853 79.4623 19.1079 79.4623 15.6942C79.4623 11.1426 75.7809 7.92969 70.7942 7.92969H60.4527V30.922H65.3724V23.4587H69.0204L74.2748 30.922H79.8974ZM65.3724 12.4478H70.2587C72.7018 12.4478 74.3752 13.7196 74.3752 15.6942C74.3752 17.6688 72.7018 18.9406 70.2587 18.9406H65.3724V12.4478ZM91.1671 27.0063C89.1256 27.0063 87.6195 25.7345 87.0506 23.8603H99.534C99.534 17.3341 96.3546 13.2176 90.9328 13.2176C85.8792 13.2176 82.0304 16.9994 82.0304 22.2204C82.0304 27.5417 86.0465 31.3236 91.2006 31.3236C93.7441 31.3236 96.7227 30.2526 98.2622 28.6462L95.1497 25.4667C94.2127 26.3704 92.5393 27.0063 91.1671 27.0063ZM91.1336 17.5349C93.1082 17.5349 94.38 18.6393 94.8485 20.3462H87.1175C87.7534 18.6059 89.2929 17.5349 91.1336 17.5349ZM109.332 31.3236C113.583 31.3236 116.361 29.1482 116.361 25.7345C116.361 21.9526 113.047 20.9486 110.069 20.1789C107.726 19.543 107.023 19.2752 107.023 18.3381C107.023 17.7357 107.86 17.3006 109.065 17.3006C110.537 17.3006 112.345 17.8696 113.918 18.8402L115.892 15.3595C113.984 14.0877 111.541 13.2176 109.065 13.2176C104.982 13.2176 102.271 15.5603 102.304 18.8402C102.338 22.2539 105.082 23.2244 108.63 24.0946C110.403 24.5631 111.675 24.8978 111.675 25.9688C111.675 26.7385 110.738 27.274 109.433 27.274C107.124 27.274 105.182 26.4373 103.643 25.3329L101.534 28.7131C103.609 30.3865 106.555 31.3236 109.332 31.3236ZM128.742 26.6381C128.407 26.9728 127.738 27.2071 127.069 27.2071C126.165 27.2071 125.429 26.4038 125.429 25.2659V17.5684H129.177V13.6192H125.429V8.86678H120.743V13.6192H118.367V17.5684H120.743V26.0357C120.743 29.1482 122.885 31.3236 125.931 31.3236C127.336 31.3236 128.909 30.7212 129.913 29.8175L128.742 26.6381ZM140.705 13.2176C138.295 13.2176 135.919 13.8869 133.476 15.1252L135.116 18.3716C136.488 17.6688 137.994 17.1333 139.6 17.1333C142.445 17.1333 143.583 18.7397 143.583 20.5805V20.9151C142.11 20.3462 140.571 20.045 139.165 20.045C135.149 20.045 131.97 22.3877 131.97 25.8014C131.97 29.1147 134.814 31.3236 138.496 31.3236C140.37 31.3236 142.345 30.5873 143.583 29.1817V30.922H148.302V20.5805C148.302 16.0623 145.223 13.2176 140.705 13.2176ZM139.6 27.9434C137.927 27.9434 136.689 27.0732 136.689 25.6676C136.689 24.2619 138.094 23.2244 139.868 23.2244C141.207 23.2244 142.478 23.4587 143.583 23.8603V25.4667C143.248 27.0732 141.474 27.9434 139.6 27.9434ZM163.9 13.6192V23.9607L163.866 23.8603C163.866 25.7345 162.293 27.2071 160.252 27.2071C158.311 27.2071 156.972 25.7345 156.972 23.5926V13.6192H152.253V24.6301C152.253 28.5458 154.93 31.3236 158.679 31.3236C160.921 31.3236 162.862 30.3196 163.9 28.7466V30.922H168.786V13.6192H163.9ZM177.864 16.8321V13.6192H172.978V30.922H177.864V22.6555C177.864 19.4091 180.174 17.3341 183.788 17.3341V13.2176C181.144 13.2176 179.002 14.5898 177.864 16.8321ZM194.338 13.2176C191.928 13.2176 189.552 13.8869 187.109 15.1252L188.749 18.3716C190.121 17.6688 191.627 17.1333 193.233 17.1333C196.078 17.1333 197.216 18.7397 197.216 20.5805V20.9151C195.744 20.3462 194.204 20.045 192.798 20.045C188.782 20.045 185.603 22.3877 185.603 25.8014C185.603 29.1147 188.448 31.3236 192.129 31.3236C194.003 31.3236 195.978 30.5873 197.216 29.1817V30.922H201.935V20.5805C201.935 16.0623 198.856 13.2176 194.338 13.2176ZM193.233 27.9434C191.56 27.9434 190.322 27.0732 190.322 25.6676C190.322 24.2619 191.727 23.2244 193.501 23.2244C194.84 23.2244 196.112 23.4587 197.216 23.8603V25.4667C196.881 27.0732 195.108 27.9434 193.233 27.9434ZM216.06 13.2176C213.818 13.2176 211.877 14.2216 210.839 15.7946V13.6192H205.953V30.922H210.839V20.5805L210.873 20.6809C210.873 18.8067 212.446 17.3341 214.487 17.3341C216.428 17.3341 217.767 18.8067 217.767 20.9486V30.922H222.486V19.9111C222.486 15.9954 219.809 13.2176 216.06 13.2176ZM235.714 26.6381C235.38 26.9728 234.71 27.2071 234.041 27.2071C233.137 27.2071 232.401 26.4038 232.401 25.2659V17.5684H236.149V13.6192H232.401V8.86678H227.716V13.6192H225.339V17.5684H227.716V26.0357C227.716 29.1482 229.858 31.3236 232.903 31.3236C234.309 31.3236 235.882 30.7212 236.886 29.8175L235.714 26.6381Z" fill="#929292"/>
</svg>
