<svg width="239" height="43" viewBox="0 0 239 43" fill="none" xmlns="http://www.w3.org/2000/svg">
<path d="M22.9767 39.9543C27.954 39.9543 32.7274 37.9771 36.2468 34.4577C39.7663 30.9382 41.7435 26.1648 41.7435 21.1875H4.20984C4.20984 26.1648 6.18705 30.9382 9.70652 34.4577C11.4492 36.2003 13.518 37.5827 15.7949 38.5258C18.0718 39.4689 20.5122 39.9543 22.9767 39.9543Z" stroke="#929292" stroke-width="4.5" stroke-linecap="round" stroke-linejoin="round"/>
<path d="M24.4203 15.4133L33.0819 2.4209" stroke="#929292" stroke-width="4.5" stroke-linecap="round" stroke-linejoin="round"/>
<path d="M28.7511 16.8569L38.8563 8.19531" stroke="#929292" stroke-width="4.5" stroke-linecap="round" stroke-linejoin="round"/>
<path d="M79.9693 33.922L74.3133 25.8897C77.4592 24.7853 79.5342 22.1079 79.5342 18.6942C79.5342 14.1426 75.8528 10.9297 70.8661 10.9297H60.5246V33.922H65.4443V26.4587H69.0923L74.3467 33.922H79.9693ZM65.4443 15.4478H70.3306C72.7737 15.4478 74.4471 16.7196 74.4471 18.6942C74.4471 20.6688 72.7737 21.9406 70.3306 21.9406H65.4443V15.4478ZM91.239 30.0063C89.1975 30.0063 87.6914 28.7345 87.1225 26.8603H99.6059C99.6059 20.3341 96.4265 16.2176 91.0047 16.2176C85.9511 16.2176 82.1023 19.9994 82.1023 25.2204C82.1023 30.5417 86.1184 34.3236 91.2725 34.3236C93.816 34.3236 96.7946 33.2526 98.3341 31.6462L95.2216 28.4667C94.2846 29.3704 92.6112 30.0063 91.239 30.0063ZM91.2055 20.5349C93.1801 20.5349 94.4519 21.6393 94.9204 23.3462H87.1894C87.8253 21.6059 89.3648 20.5349 91.2055 20.5349ZM109.404 34.3236C113.655 34.3236 116.433 32.1482 116.433 28.7345C116.433 24.9526 113.119 23.9486 110.141 23.1789C107.798 22.543 107.095 22.2752 107.095 21.3381C107.095 20.7357 107.932 20.3006 109.137 20.3006C110.609 20.3006 112.416 20.8696 113.989 21.8402L115.964 18.3595C114.056 17.0877 111.613 16.2176 109.137 16.2176C105.054 16.2176 102.343 18.5603 102.376 21.8402C102.41 25.2539 105.154 26.2244 108.702 27.0946C110.475 27.5631 111.747 27.8978 111.747 28.9688C111.747 29.7385 110.81 30.274 109.505 30.274C107.195 30.274 105.254 29.4373 103.715 28.3329L101.606 31.7131C103.681 33.3865 106.627 34.3236 109.404 34.3236ZM128.814 29.6381C128.479 29.9728 127.81 30.2071 127.141 30.2071C126.237 30.2071 125.501 29.4038 125.501 28.2659V20.5684H129.249V16.6192H125.501V11.8668H120.815V16.6192H118.439V20.5684H120.815V29.0357C120.815 32.1482 122.957 34.3236 126.003 34.3236C127.408 34.3236 128.981 33.7212 129.985 32.8175L128.814 29.6381ZM140.777 16.2176C138.367 16.2176 135.991 16.8869 133.548 18.1252L135.188 21.3716C136.56 20.6688 138.066 20.1333 139.672 20.1333C142.517 20.1333 143.655 21.7397 143.655 23.5805V23.9151C142.182 23.3462 140.643 23.045 139.237 23.045C135.221 23.045 132.042 25.3877 132.042 28.8014C132.042 32.1147 134.886 34.3236 138.568 34.3236C140.442 34.3236 142.417 33.5873 143.655 32.1817V33.922H148.374V23.5805C148.374 19.0623 145.295 16.2176 140.777 16.2176ZM139.672 30.9434C137.999 30.9434 136.76 30.0732 136.76 28.6676C136.76 27.2619 138.166 26.2244 139.94 26.2244C141.279 26.2244 142.55 26.4587 143.655 26.8603V28.4667C143.32 30.0732 141.546 30.9434 139.672 30.9434ZM163.972 16.6192V26.9607L163.938 26.8603C163.938 28.7345 162.365 30.2071 160.324 30.2071C158.382 30.2071 157.044 28.7345 157.044 26.5926V16.6192H152.325V27.6301C152.325 31.5458 155.002 34.3236 158.751 34.3236C160.993 34.3236 162.934 33.3196 163.972 31.7466V33.922H168.858V16.6192H163.972ZM177.936 19.8321V16.6192H173.05V33.922H177.936V25.6555C177.936 22.4091 180.245 20.3341 183.86 20.3341V16.2176C181.216 16.2176 179.074 17.5898 177.936 19.8321ZM194.41 16.2176C192 16.2176 189.624 16.8869 187.181 18.1252L188.821 21.3716C190.193 20.6688 191.699 20.1333 193.305 20.1333C196.15 20.1333 197.288 21.7397 197.288 23.5805V23.9151C195.815 23.3462 194.276 23.045 192.87 23.045C188.854 23.045 185.675 25.3877 185.675 28.8014C185.675 32.1147 188.52 34.3236 192.201 34.3236C194.075 34.3236 196.05 33.5873 197.288 32.1817V33.922H202.007V23.5805C202.007 19.0623 198.928 16.2176 194.41 16.2176ZM193.305 30.9434C191.632 30.9434 190.394 30.0732 190.394 28.6676C190.394 27.2619 191.799 26.2244 193.573 26.2244C194.912 26.2244 196.184 26.4587 197.288 26.8603V28.4667C196.953 30.0732 195.18 30.9434 193.305 30.9434ZM216.132 16.2176C213.89 16.2176 211.949 17.2216 210.911 18.7946V16.6192H206.025V33.922H210.911V23.5805L210.945 23.6809C210.945 21.8067 212.518 20.3341 214.559 20.3341C216.5 20.3341 217.839 21.8067 217.839 23.9486V33.922H222.558V22.9111C222.558 18.9954 219.881 16.2176 216.132 16.2176ZM235.786 29.6381C235.452 29.9728 234.782 30.2071 234.113 30.2071C233.209 30.2071 232.473 29.4038 232.473 28.2659V20.5684H236.221V16.6192H232.473V11.8668H227.788V16.6192H225.411V20.5684H227.788V29.0357C227.788 32.1482 229.929 34.3236 232.975 34.3236C234.381 34.3236 235.954 33.7212 236.958 32.8175L235.786 29.6381Z" fill="#929292"/>
</svg>
