<svg width="239" height="40" viewBox="0 0 239 40" fill="none" xmlns="http://www.w3.org/2000/svg">
<path d="M7.39056 27.1641H41.5631V32.0459C41.5631 33.3407 41.0488 34.5824 40.1333 35.4979C39.2177 36.4134 37.976 36.9277 36.6813 36.9277H12.2724C10.9776 36.9277 9.73592 36.4134 8.8204 35.4979C7.90489 34.5824 7.39056 33.3407 7.39056 32.0459V27.1641Z" stroke="#929292" stroke-width="4.68728" stroke-linecap="round" stroke-linejoin="round"/>
<path d="M17.1542 2.75537H31.7995C34.389 2.75537 36.8724 3.78403 38.7034 5.61505C40.5344 7.44608 41.5631 9.92948 41.5631 12.5189V17.4007H7.39056V12.5189C7.39056 9.92948 8.41922 7.44608 10.2503 5.61505C12.0813 3.78403 14.5647 2.75537 17.1542 2.75537Z" stroke="#929292" stroke-width="3.89088" stroke-linecap="round" stroke-linejoin="round"/>
<path d="M41.5632 17.4004H7.39064C4.6945 17.4004 2.50885 19.586 2.50885 22.2822C2.50885 24.9783 4.6945 27.164 7.39064 27.164H41.5632C44.2593 27.164 46.4449 24.9783 46.4449 22.2822C46.4449 19.586 44.2593 17.4004 41.5632 17.4004Z" stroke="#929292" stroke-width="3.89088" stroke-linecap="round" stroke-linejoin="round"/>
<path d="M80.0412 29.922L74.3852 21.8897C77.5311 20.7853 79.6061 18.1079 79.6061 14.6942C79.6061 10.1426 75.9247 6.92969 70.938 6.92969H60.5965V29.922H65.5162V22.4587H69.1642L74.4186 29.922H80.0412ZM65.5162 11.4478H70.4025C72.8456 11.4478 74.519 12.7196 74.519 14.6942C74.519 16.6688 72.8456 17.9406 70.4025 17.9406H65.5162V11.4478ZM91.3109 26.0063C89.2694 26.0063 87.7633 24.7345 87.1944 22.8603H99.6778C99.6778 16.3341 96.4984 12.2176 91.0766 12.2176C86.023 12.2176 82.1742 15.9994 82.1742 21.2204C82.1742 26.5417 86.1903 30.3236 91.3444 30.3236C93.8879 30.3236 96.8665 29.2526 98.406 27.6462L95.2935 24.4667C94.3565 25.3704 92.6831 26.0063 91.3109 26.0063ZM91.2774 16.5349C93.252 16.5349 94.5238 17.6393 94.9923 19.3462H87.2613C87.8972 17.6059 89.4367 16.5349 91.2774 16.5349ZM109.476 30.3236C113.727 30.3236 116.504 28.1482 116.504 24.7345C116.504 20.9526 113.191 19.9486 110.213 19.1789C107.87 18.543 107.167 18.2752 107.167 17.3381C107.167 16.7357 108.004 16.3006 109.209 16.3006C110.681 16.3006 112.488 16.8696 114.061 17.8402L116.036 14.3595C114.128 13.0877 111.685 12.2176 109.209 12.2176C105.125 12.2176 102.415 14.5603 102.448 17.8402C102.482 21.2539 105.226 22.2244 108.773 23.0946C110.547 23.5631 111.819 23.8978 111.819 24.9688C111.819 25.7385 110.882 26.274 109.577 26.274C107.267 26.274 105.326 25.4373 103.787 24.3329L101.678 27.7131C103.753 29.3865 106.698 30.3236 109.476 30.3236ZM128.886 25.6381C128.551 25.9728 127.882 26.2071 127.213 26.2071C126.309 26.2071 125.573 25.4038 125.573 24.2659V16.5684H129.321V12.6192H125.573V7.86678H120.887V12.6192H118.511V16.5684H120.887V25.0357C120.887 28.1482 123.029 30.3236 126.075 30.3236C127.48 30.3236 129.053 29.7212 130.057 28.8175L128.886 25.6381ZM140.849 12.2176C138.439 12.2176 136.063 12.8869 133.619 14.1252L135.259 17.3716C136.632 16.6688 138.138 16.1333 139.744 16.1333C142.589 16.1333 143.727 17.7397 143.727 19.5805V19.9151C142.254 19.3462 140.715 19.045 139.309 19.045C135.293 19.045 132.113 21.3877 132.113 24.8014C132.113 28.1147 134.958 30.3236 138.64 30.3236C140.514 30.3236 142.488 29.5873 143.727 28.1817V29.922H148.446V19.5805C148.446 15.0623 145.367 12.2176 140.849 12.2176ZM139.744 26.9434C138.071 26.9434 136.832 26.0732 136.832 24.6676C136.832 23.2619 138.238 22.2244 140.012 22.2244C141.351 22.2244 142.622 22.4587 143.727 22.8603V24.4667C143.392 26.0732 141.618 26.9434 139.744 26.9434ZM164.043 12.6192V22.9607L164.01 22.8603C164.01 24.7345 162.437 26.2071 160.395 26.2071C158.454 26.2071 157.116 24.7345 157.116 22.5926V12.6192H152.397V23.6301C152.397 27.5458 155.074 30.3236 158.822 30.3236C161.065 30.3236 163.006 29.3196 164.043 27.7466V29.922H168.93V12.6192H164.043ZM178.008 15.8321V12.6192H173.122V29.922H178.008V21.6555C178.008 18.4091 180.317 16.3341 183.932 16.3341V12.2176C181.288 12.2176 179.146 13.5898 178.008 15.8321ZM194.482 12.2176C192.072 12.2176 189.696 12.8869 187.253 14.1252L188.893 17.3716C190.265 16.6688 191.771 16.1333 193.377 16.1333C196.222 16.1333 197.36 17.7397 197.36 19.5805V19.9151C195.887 19.3462 194.348 19.045 192.942 19.045C188.926 19.045 185.747 21.3877 185.747 24.8014C185.747 28.1147 188.591 30.3236 192.273 30.3236C194.147 30.3236 196.122 29.5873 197.36 28.1817V29.922H202.079V19.5805C202.079 15.0623 199 12.2176 194.482 12.2176ZM193.377 26.9434C191.704 26.9434 190.466 26.0732 190.466 24.6676C190.466 23.2619 191.871 22.2244 193.645 22.2244C194.984 22.2244 196.256 22.4587 197.36 22.8603V24.4667C197.025 26.0732 195.251 26.9434 193.377 26.9434ZM216.204 12.2176C213.962 12.2176 212.021 13.2216 210.983 14.7946V12.6192H206.097V29.922H210.983V19.5805L211.017 19.6809C211.017 17.8067 212.59 16.3341 214.631 16.3341C216.572 16.3341 217.911 17.8067 217.911 19.9486V29.922H222.63V18.9111C222.63 14.9954 219.952 12.2176 216.204 12.2176ZM235.858 25.6381C235.524 25.9728 234.854 26.2071 234.185 26.2071C233.281 26.2071 232.545 25.4038 232.545 24.2659V16.5684H236.293V12.6192H232.545V7.86678H227.859V12.6192H225.483V16.5684H227.859V25.0357C227.859 28.1482 230.001 30.3236 233.047 30.3236C234.453 30.3236 236.026 29.7212 237.03 28.8175L235.858 25.6381Z" fill="#929292"/>
</svg>
